                                                                        S      1
,,,10Hcrank-M6mm,22HAutodesk Inventor 2016,7Hunknown,32,38,7,99,15,,1., G      1
2,2HMM,1,0.08,15H20160605.103621,0.01,10000.,6H七海,,11,0,15H20160604.G      2
111229;                                                                 G      3
     186       1                                                00000000D      1
     186            -103       1       0                               0D      2
     514       2                                                00010000D      3
     514                       1       1                               0D      4
     510       3                                                00010000D      5
     510            -103       1       1                               0D      6
     510       4                                                00010000D      7
     510            -103       1       1                               0D      8
     510       5                                                00010000D      9
     510            -103       1       1                               0D     10
     510       6                                                00010000D     11
     510            -103       1       1                               0D     12
     510       7                                                00010000D     13
     510            -103       1       1                               0D     14
     510       8                                                00010000D     15
     510            -103       1       1                               0D     16
     510       9                                                00010000D     17
     510            -103       1       1                               0D     18
     510      10                                                00010000D     19
     510            -103       1       1                               0D     20
     508      11                                                00010000D     21
     508                       1       1                               0D     22
     508      12                                                00010000D     23
     508                       1       1                               0D     24
     508      13                                                00010000D     25
     508                       1       1                               0D     26
     508      14                                                00010000D     27
     508                       1       1                               0D     28
     508      15                                                00010000D     29
     508                       1       1                               0D     30
     508      16                                                00010000D     31
     508                       1       1                               0D     32
     508      17                                                00010000D     33
     508                       1       1                               0D     34
     508      18                                                00010000D     35
     508                       1       1                               0D     36
     508      19                                                00010000D     37
     508                       1       1                               0D     38
     508      20                                                00010000D     39
     508                       1       1                               0D     40
     508      21                                                00010000D     41
     508                       1       1                               0D     42
     508      22                                                00010000D     43
     508                       1       1                               0D     44
     126      23                                                00010000D     45
     126       0               8       0                               0D     46
     126      31                                                00010000D     47
     126       0               2       0                               0D     48
     126      33                                                00010000D     49
     126       0               8       0                               0D     50
     126      41                                                00010000D     51
     126       0               9       0                               0D     52
     126      50                                                00010000D     53
     126       0               2       0                               0D     54
     126      52                                                00010000D     55
     126       0               9       0                               0D     56
     126      61                                                00010000D     57
     126       0               2       0                               0D     58
     126      63                                                00010000D     59
     126       0               2       0                               0D     60
     126      65                                                00010000D     61
     126       0               2       0                               0D     62
     126      67                                                00010000D     63
     126       0               2       0                               0D     64
     126      69                                                00010000D     65
     126       0               5       0                               0D     66
     126      74                                                00010000D     67
     126       0               5       0                               0D     68
     126      79                                                00010000D     69
     126       0               2       0                               0D     70
     126      81                                                00010000D     71
     126       0               2       0                               0D     72
     126      83                                                00010000D     73
     126       0               2       0                               0D     74
     126      85                                                00010000D     75
     126       0               2       0                               0D     76
     126      87                                                00010000D     77
     126       0               5       0                               0D     78
     126      92                                                00010000D     79
     126       0               5       0                               0D     80
     128      97                                                00010000D     81
     128       0    -103      11       0                               0D     82
     128     108                                                00010000D     83
     128       0    -103      11       0                               0D     84
     128     119                                                00010000D     85
     128       0    -103       2       0                               0D     86
     128     121                                                00010000D     87
     128       0    -103       7       0                               0D     88
     128     128                                                00010000D     89
     128       0    -103       2       0                               0D     90
     128     130                                                00010000D     91
     128       0    -103       7       0                               0D     92
     128     137                                                00010000D     93
     128       0    -103       3       0                               0D     94
     128     140                                                00010000D     95
     128       0    -103       3       0                               0D     96
     502     143                                                00010000D     97
     502                       3       1                               0D     98
     504     146                                                00010001D     99
     504                       4       1                               0D    100
     406     150                                                00000000D    101
     406                       1      15                               0D    102
     314     151                                                00000200D    103
     314                       1       0                               0D    104
186,3,1,0,0,1,101;                                                     1P      1
514,8,5,1,7,1,9,1,11,1,13,1,15,1,17,1,19,1;                            3P      2
510,81,1,1,21;                                                         5P      3
510,83,1,1,23;                                                         7P      4
510,85,1,1,25;                                                         9P      5
510,87,1,1,27;                                                        11P      6
510,89,1,1,29;                                                        13P      7
510,91,1,1,31;                                                        15P      8
510,93,3,1,33,35,37;                                                  17P      9
510,95,3,1,39,41,43;                                                  19P     10
508,4,0,99,1,0,0,0,99,2,1,0,0,99,3,0,0,0,99,2,0,0;                    21P     11
508,4,0,99,4,0,0,0,99,5,1,0,0,99,6,0,0,0,99,5,0,0;                    23P     12
508,4,0,99,7,1,0,0,99,8,1,0,0,99,9,0,0,0,99,10,0,0;                   25P     13
508,4,0,99,11,1,0,0,99,10,1,0,0,99,12,0,0,0,99,13,0,0;                27P     14
508,4,0,99,14,1,0,0,99,13,1,0,0,99,15,0,0,0,99,16,0,0;                29P     15
508,4,0,99,17,1,0,0,99,16,1,0,0,99,18,0,0,0,99,8,0,0;                 31P     16
508,4,0,99,18,1,0,0,99,15,1,0,0,99,12,1,0,0,99,9,1,0;                 33P     17
508,1,0,99,3,1,0;                                                     35P     18
508,1,0,99,6,1,0;                                                     37P     19
508,4,0,99,17,0,0,0,99,7,0,0,0,99,11,0,0,0,99,14,0,0;                 39P     20
508,1,0,99,1,1,0;                                                     41P     21
508,1,0,99,4,1,0;                                                     43P     22
126,8,2,0,1,0,0,-3.14159265358979,-3.14159265358979,                  45P     23
-3.14159265358979,-1.5707963267949,-1.5707963267949,0.,0.,            45P     24
1.5707963267949,1.5707963267949,3.14159265358979,                     45P     25
3.14159265358979,3.14159265358979,1.,0.707106781186547,1.,            45P     26
0.707106781186547,1.,0.707106781186547,1.,0.707106781186547,1.,       45P     27
0.,4.,-33.,0.,4.,-29.,0.,-2.44929359829471D-16,-29.,0.,-4.,-29.,      45P     28
0.,-4.,-33.,0.,-4.,-37.,0.,-2.44929359829471D-16,-37.,0.,4.,          45P     29
-37.,0.,4.,-33.,-3.14159265358979,3.14159265358979,0.,0.,0.;          45P     30
126,1,1,0,0,1,0,0.,0.,0.5,0.5,1.,1.,0.,4.,-33.,2.,4.,-33.,0.,         47P     31
0.5,0.,0.,0.;                                                         47P     32
126,8,2,0,1,0,0,-3.14159265358979,-3.14159265358979,                  49P     33
-3.14159265358979,-1.5707963267949,-1.5707963267949,0.,0.,            49P     34
1.5707963267949,1.5707963267949,3.14159265358979,                     49P     35
3.14159265358979,3.14159265358979,1.,0.707106781186547,1.,            49P     36
0.707106781186547,1.,0.707106781186547,1.,0.707106781186547,1.,       49P     37
2.,4.,-33.,2.,4.,-37.,2.,-2.44929359829471D-16,-37.,2.,-4.,-37.,      49P     38
2.,-4.,-33.,2.,-4.,-29.,2.,-2.44929359829471D-16,-29.,2.,4.,          49P     39
-29.,2.,4.,-33.,-3.14159265358979,3.14159265358979,0.,0.,0.;          49P     40
126,8,2,0,1,0,0,-3.14159265358979,-3.14159265358979,                  51P     41
-3.14159265358979,-1.5707963267949,-1.5707963267949,0.,0.,            51P     42
1.5707963267949,1.5707963267949,3.14159265358979,                     51P     43
3.14159265358979,3.14159265358979,1.,0.707106781186548,1.,            51P     44
0.707106781186548,1.,0.707106781186548,1.,0.707106781186548,1.,       51P     45
0.,3.,3.67394039744206D-16,0.,3.,3.,0.,-1.83697019872103D-16,3.,      51P     46
0.,-3.,3.,0.,-3.,0.,0.,-3.,-3.,0.,-1.83697019872103D-16,-3.,0.,       51P     47
3.,-3.,0.,3.,-3.67394039744206D-16,-3.14159265358979,                 51P     48
3.14159265358979,0.,0.,0.;                                            51P     49
126,1,1,0,0,1,0,0.,0.,0.666666666666667,0.666666666666667,1.,1.,      53P     50
0.,3.,0.,2.,3.,0.,0.,0.666666666666667,0.,0.,0.;                      53P     51
126,8,2,0,1,0,0,-3.14159265358979,-3.14159265358979,                  55P     52
-3.14159265358979,-1.5707963267949,-1.5707963267949,0.,0.,            55P     53
1.5707963267949,1.5707963267949,3.14159265358979,                     55P     54
3.14159265358979,3.14159265358979,1.,0.707106781186548,1.,            55P     55
0.707106781186548,1.,0.707106781186548,1.,0.707106781186548,1.,       55P     56
2.,3.,-3.67394039744206D-16,2.,3.,-3.,2.,-1.83697019872103D-16,       55P     57
-3.,2.,-3.,-3.,2.,-3.,0.,2.,-3.,3.,2.,-1.83697019872103D-16,3.,       55P     58
2.,3.,3.,2.,3.,3.67394039744206D-16,-3.14159265358979,                55P     59
3.14159265358979,0.,0.,0.;                                            55P     60
126,1,1,0,0,1,0,0.,0.,3.3,3.3,1.,1.,0.,6.,-33.,0.,6.,0.,0.,3.3,       57P     61
0.,0.,0.;                                                             57P     62
126,1,1,0,0,1,0,0.,0.,0.2,0.2,1.,1.,0.,6.,0.,2.,6.,0.,0.,0.2,0.,      59P     63
0.,0.;                                                                59P     64
126,1,1,0,0,1,0,0.,0.,3.3,3.3,1.,1.,2.,6.,-33.,2.,6.,0.,0.,3.3,       61P     65
0.,0.,0.;                                                             61P     66
126,1,1,0,0,1,0,0.,0.,0.2,0.2,1.,1.,0.,6.,-33.,2.,6.,-33.,0.,         63P     67
0.2,0.,0.,0.;                                                         63P     68
126,4,2,0,0,0,0,0.,0.,0.,1.5707963267949,1.5707963267949,             65P     69
3.14159265358979,3.14159265358979,3.14159265358979,1.,                65P     70
0.707106781186548,1.,0.707106781186548,1.,0.,-6.,-33.,0.,-6.,         65P     71
-39.,0.,-3.67394039744206D-16,-39.,0.,6.,-39.,0.,6.,-33.,0.,          65P     72
3.14159265358979,0.,0.,0.;                                            65P     73
126,4,2,0,0,0,0,0.,0.,0.,1.5707963267949,1.5707963267949,             67P     74
3.14159265358979,3.14159265358979,3.14159265358979,1.,                67P     75
0.707106781186548,1.,0.707106781186548,1.,2.,-6.,-33.,2.,-6.,         67P     76
-39.,2.,-3.67394039744206D-16,-39.,2.,6.,-39.,2.,6.,-33.,0.,          67P     77
3.14159265358979,0.,0.,0.;                                            67P     78
126,1,1,0,0,1,0,0.,0.,0.2,0.2,1.,1.,0.,-6.,-33.,2.,-6.,-33.,0.,       69P     79
0.2,0.,0.,0.;                                                         69P     80
126,1,1,0,0,1,0,0.,0.,3.3,3.3,1.,1.,0.,-6.,0.,0.,-6.,-33.,0.,         71P     81
3.3,0.,0.,0.;                                                         71P     82
126,1,1,0,0,1,0,0.,0.,3.3,3.3,1.,1.,2.,-6.,0.,2.,-6.,-33.,0.,         73P     83
3.3,0.,0.,0.;                                                         73P     84
126,1,1,0,0,1,0,0.,0.,0.2,0.2,1.,1.,0.,-6.,0.,2.,-6.,0.,0.,0.2,       75P     85
0.,0.,0.;                                                             75P     86
126,4,2,0,0,0,0,0.,0.,0.,1.5707963267949,1.5707963267949,             77P     87
3.14159265358979,3.14159265358979,3.14159265358979,1.,                77P     88
0.707106781186548,1.,0.707106781186548,1.,0.,6.,0.,0.,6.,6.,0.,       77P     89
3.67394039744206D-16,6.,0.,-6.,6.,0.,-6.,7.34788079488412D-16,        77P     90
0.,3.14159265358979,0.,0.,0.;                                         77P     91
126,4,2,0,0,0,0,0.,0.,0.,1.5707963267949,1.5707963267949,             79P     92
3.14159265358979,3.14159265358979,3.14159265358979,1.,                79P     93
0.707106781186548,1.,0.707106781186548,1.,2.,6.,0.,2.,6.,6.,2.,       79P     94
3.67394039744206D-16,6.,2.,-6.,6.,2.,-6.,7.34788079488412D-16,        79P     95
0.,3.14159265358979,0.,0.,0.;                                         79P     96
128,1,8,1,2,0,1,0,0,1,0.,0.,0.5,0.5,-3.14159265358979,                81P     97
-3.14159265358979,-3.14159265358979,-1.5707963267949,                 81P     98
-1.5707963267949,0.,0.,1.5707963267949,1.5707963267949,               81P     99
3.14159265358979,3.14159265358979,3.14159265358979,1.,1.,             81P    100
0.707106781186548,0.707106781186548,1.,1.,0.707106781186548,          81P    101
0.707106781186548,1.,1.,0.707106781186548,0.707106781186548,1.,       81P    102
1.,0.707106781186548,0.707106781186548,1.,1.,0.,4.,-33.,2.,4.,        81P    103
-33.,0.,4.,-29.,2.,4.,-29.,0.,0.,-29.,2.,0.,-29.,0.,-4.,-29.,2.,      81P    104
-4.,-29.,0.,-4.,-33.,2.,-4.,-33.,0.,-4.,-37.,2.,-4.,-37.,0.,0.,       81P    105
-37.,2.,0.,-37.,0.,4.,-37.,2.,4.,-37.,0.,4.,-33.,2.,4.,-33.,0.,       81P    106
0.5,-3.14159265358979,3.14159265358979;                               81P    107
128,1,8,1,2,0,1,0,0,1,0.,0.,0.666666666666667,0.666666666666667,      83P    108
-3.14159265358979,-3.14159265358979,-3.14159265358979,                83P    109
-1.5707963267949,-1.5707963267949,0.,0.,1.5707963267949,              83P    110
1.5707963267949,3.14159265358979,3.14159265358979,                    83P    111
3.14159265358979,1.,1.,0.707106781186548,0.707106781186548,1.,        83P    112
1.,0.707106781186548,0.707106781186548,1.,1.,0.707106781186548,       83P    113
0.707106781186548,1.,1.,0.707106781186548,0.707106781186548,1.,       83P    114
1.,0.,3.,0.,2.,3.,0.,0.,3.,3.,2.,3.,3.,0.,0.,3.,2.,0.,3.,0.,-3.,      83P    115
3.,2.,-3.,3.,0.,-3.,0.,2.,-3.,0.,0.,-3.,-3.,2.,-3.,-3.,0.,0.,         83P    116
-3.,2.,0.,-3.,0.,3.,-3.,2.,3.,-3.,0.,3.,0.,2.,3.,0.,0.,               83P    117
0.666666666666667,-3.14159265358979,3.14159265358979;                 83P    118
128,1,1,1,1,0,0,1,0,0,0.,0.,3.3,3.3,0.,0.,0.2,0.2,1.,1.,1.,1.,        85P    119
0.,6.,-33.,0.,6.,0.,2.,6.,-33.,2.,6.,0.,0.,3.3,0.,0.2;                85P    120
128,1,4,1,2,0,0,0,0,0,0.,0.,0.333333333333333,0.333333333333333,      87P    121
0.,0.,0.,1.5707963267949,1.5707963267949,3.14159265358979,            87P    122
3.14159265358979,3.14159265358979,1.,1.,0.707106781186548,            87P    123
0.707106781186548,1.,1.,0.707106781186548,0.707106781186548,1.,       87P    124
1.,2.,-6.,-33.,0.,-6.,-33.,2.,-6.,-39.,0.,-6.,-39.,2.,0.,-39.,        87P    125
0.,0.,-39.,2.,6.,-39.,0.,6.,-39.,2.,6.,-33.,0.,6.,-33.,0.,            87P    126
0.333333333333333,0.,3.14159265358979;                                87P    127
128,1,1,1,1,0,0,1,0,0,0.,0.,3.3,3.3,0.,0.,0.2,0.2,1.,1.,1.,1.,        89P    128
0.,-6.,0.,0.,-6.,-33.,2.,-6.,0.,2.,-6.,-33.,0.,3.3,0.,0.2;            89P    129
128,1,4,1,2,0,0,0,0,0,0.,0.,0.333333333333333,0.333333333333333,      91P    130
0.,0.,0.,1.5707963267949,1.5707963267949,3.14159265358979,            91P    131
3.14159265358979,3.14159265358979,1.,1.,0.707106781186548,            91P    132
0.707106781186548,1.,1.,0.707106781186548,0.707106781186548,1.,       91P    133
1.,2.,6.,0.,0.,6.,0.,2.,6.,6.,0.,6.,6.,2.,0.,6.,0.,0.,6.,2.,-6.,      91P    134
6.,0.,-6.,6.,2.,-6.,0.,0.,-6.,0.,0.,0.333333333333333,0.,             91P    135
3.14159265358979;                                                     91P    136
128,1,1,1,1,0,0,1,0,0,-2.25,-2.25,2.25,2.25,-0.6,-0.6,0.6,0.6,        93P    137
1.,1.,1.,1.,2.,-6.,6.,2.,-6.,-39.,2.,6.,6.,2.,6.,-39.,-2.25,          93P    138
2.25,-0.6,0.6;                                                        93P    139
128,1,1,1,1,0,0,1,0,0,-2.25,-2.25,2.25,2.25,-0.6,-0.6,0.6,0.6,        95P    140
1.,1.,1.,1.,0.,-6.,-39.,0.,-6.,6.,0.,6.,-39.,0.,6.,6.,-2.25,          95P    141
2.25,-0.6,0.6;                                                        95P    142
502,12,0.,4.,-33.,2.,4.,-33.,0.,3.,3.67394039744206D-16,2.,3.,        97P    143
3.67394039744206D-16,0.,6.,-33.,0.,6.,0.,2.,6.,0.,2.,6.,-33.,0.,      97P    144
-6.,-33.,2.,-6.,-33.,0.,-6.,0.,2.,-6.,0.;                             97P    145
504,18,45,97,1,97,1,47,97,1,97,2,49,97,2,97,2,51,97,3,97,3,53,        99P    146
97,3,97,4,55,97,4,97,4,57,97,5,97,6,59,97,6,97,7,61,97,8,97,7,        99P    147
63,97,5,97,8,65,97,9,97,5,67,97,10,97,8,69,97,9,97,10,71,97,11,       99P    148
97,9,73,97,12,97,10,75,97,11,97,12,77,97,6,97,11,79,97,7,97,12;       99P    149
406,1,13Hソリッド1;                                              101P    150
314,74.9019607843137,74.9019607843137,74.9019607843137,;             103P    151
S      1G      3D    104P    151                                        T      1
