                                                                        S      1
,,,18Hver7-cylinder-11mm,22HAutodesk Inventor 2016,7Hunknown,32,38,7,99,G      1
15,,1.,2,2HMM,1,0.08,15H20160605.101646,0.01,10000.,6H七海,,11,0,15H20G      2
151101.111220;                                                          G      3
     186       1                                                00000000D      1
     186            -191       1       0                               0D      2
     514       2                                                00010000D      3
     514                       2       1                               0D      4
     510       4                                                00010000D      5
     510            -191       1       1                               0D      6
     510       5                                                00010000D      7
     510            -191       1       1                               0D      8
     510       6                                                00010000D      9
     510            -191       1       1                               0D     10
     510       7                                                00010000D     11
     510            -191       1       1                               0D     12
     510       8                                                00010000D     13
     510            -191       1       1                               0D     14
     510       9                                                00010000D     15
     510            -191       1       1                               0D     16
     510      10                                                00010000D     17
     510            -191       1       1                               0D     18
     510      11                                                00010000D     19
     510            -191       1       1                               0D     20
     510      12                                                00010000D     21
     510            -191       1       1                               0D     22
     510      13                                                00010000D     23
     510            -191       1       1                               0D     24
     510      14                                                00010000D     25
     510            -191       1       1                               0D     26
     510      15                                                00010000D     27
     510            -191       1       1                               0D     28
     510      16                                                00010000D     29
     510            -191       1       1                               0D     30
     510      17                                                00010000D     31
     510            -191       1       1                               0D     32
     508      18                                                00010000D     33
     508                       1       1                               0D     34
     508      19                                                00010000D     35
     508                       1       1                               0D     36
     508      20                                                00010000D     37
     508                       1       1                               0D     38
     508      21                                                00010000D     39
     508                       1       1                               0D     40
     508      22                                                00010000D     41
     508                       1       1                               0D     42
     508      23                                                00010000D     43
     508                       1       1                               0D     44
     508      24                                                00010000D     45
     508                       1       1                               0D     46
     508      25                                                00010000D     47
     508                       1       1                               0D     48
     508      26                                                00010000D     49
     508                       1       1                               0D     50
     508      27                                                00010000D     51
     508                       1       1                               0D     52
     508      28                                                00010000D     53
     508                       1       1                               0D     54
     508      29                                                00010000D     55
     508                       1       1                               0D     56
     508      30                                                00010000D     57
     508                       1       1                               0D     58
     508      31                                                00010000D     59
     508                       2       1                               0D     60
     508      33                                                00010000D     61
     508                       2       1                               0D     62
     508      35                                                00010000D     63
     508                       1       1                               0D     64
     508      36                                                00010000D     65
     508                       1       1                               0D     66
     508      37                                                00010000D     67
     508                       1       1                               0D     68
     508      38                                                00010000D     69
     508                       1       1                               0D     70
     508      39                                                00010000D     71
     508                       1       1                               0D     72
     508      40                                                00010000D     73
     508                       1       1                               0D     74
     508      41                                                00010000D     75
     508                       1       1                               0D     76
     508      42                                                00010000D     77
     508                       1       1                               0D     78
     508      43                                                00010000D     79
     508                       1       1                               0D     80
     126      44                                                00010000D     81
     126       0               9       0                               0D     82
     126      53                                                00010000D     83
     126       0               2       0                               0D     84
     126      55                                                00010000D     85
     126       0              10       0                               0D     86
     126      65                                                00010000D     87
     126       0               4       0                               0D     88
     126      69                                                00010000D     89
     126       0               2       0                               0D     90
     126      71                                                00010000D     91
     126       0               2       0                               0D     92
     126      73                                                00010000D     93
     126       0               2       0                               0D     94
     126      75                                                00010000D     95
     126       0               8       0                               0D     96
     126      83                                                00010000D     97
     126       0               7       0                               0D     98
     126      90                                                00010000D     99
     126       0               2       0                               0D    100
     126      92                                                00010000D    101
     126       0               3       0                               0D    102
     126      95                                                00010000D    103
     126       0               2       0                               0D    104
     126      97                                                00010000D    105
     126       0               2       0                               0D    106
     126      99                                                00010000D    107
     126       0               6       0                               0D    108
     126     105                                                00010000D    109
     126       0               6       0                               0D    110
     126     111                                                00010000D    111
     126       0               4       0                               0D    112
     126     115                                                00010000D    113
     126       0               5       0                               0D    114
     126     120                                                00010000D    115
     126       0               4       0                               0D    116
     126     124                                                00010000D    117
     126       0               7       0                               0D    118
     126     131                                                00010000D    119
     126       0              12       0                               0D    120
     126     143                                                00010000D    121
     126       0              12       0                               0D    122
     126     155                                                00010000D    123
     126       0              11       0                               0D    124
     126     166                                                00010000D    125
     126       0               2       0                               0D    126
     126     168                                                00010000D    127
     126       0               2       0                               0D    128
     126     170                                                00010000D    129
     126       0               2       0                               0D    130
     126     172                                                00010000D    131
     126       0               2       0                               0D    132
     126     174                                                00010000D    133
     126       0               7       0                               0D    134
     126     181                                                00010000D    135
     126       0               6       0                               0D    136
     126     187                                                00010000D    137
     126       0               7       0                               0D    138
     126     194                                                00010000D    139
     126       0               4       0                               0D    140
     126     198                                                00010000D    141
     126       0               6       0                               0D    142
     126     204                                                00010000D    143
     126       0               7       0                               0D    144
     126     211                                                00010000D    145
     126       0               4       0                               0D    146
     126     215                                                00010000D    147
     126       0               4       0                               0D    148
     126     219                                                00010000D    149
     126       0              11       0                               0D    150
     126     230                                                00010000D    151
     126       0               2       0                               0D    152
     126     232                                                00010000D    153
     126       0               2       0                               0D    154
     126     234                                                00010000D    155
     126       0               7       0                               0D    156
     128     241                                                00010000D    157
     128       0    -191      12       0                               0D    158
     128     253                                                00010000D    159
     128       0    -191       5       0                               0D    160
     128     258                                                00010000D    161
     128       0    -191      10       0                               0D    162
     128     268                                                00010000D    163
     128       0    -191       3       0                               0D    164
     128     271                                                00010000D    165
     128       0    -191      10       0                               0D    166
     128     281                                                00010000D    167
     128       0    -191       6       0                               0D    168
     128     287                                                00010000D    169
     128       0    -191       3       0                               0D    170
     128     290                                                00010000D    171
     128       0    -191       9       0                               0D    172
     128     299                                                00010000D    173
     128       0    -191      19       0                               0D    174
     128     318                                                00010000D    175
     128       0    -191      20       0                               0D    176
     128     338                                                00010000D    177
     128       0    -191      18       0                               0D    178
     128     356                                                00010000D    179
     128       0    -191       3       0                               0D    180
     128     359                                                00010000D    181
     128       0    -191      11       0                               0D    182
     128     370                                                00010000D    183
     128       0    -191       2       0                               0D    184
     502     372                                                00010000D    185
     502                      11       1                               0D    186
     504     383                                                00010001D    187
     504                      11       1                               0D    188
     406     394                                                00000000D    189
     406                       1      15                               0D    190
     314     395                                                00000200D    191
     314                       1       0                               0D    192
186,3,1,0,0,1,189;                                                     1P      1
514,14,5,1,7,1,9,1,11,1,13,1,15,1,17,1,19,1,21,1,23,1,25,1,27,1,       3P      2
29,1,31,1;                                                             3P      3
510,157,1,1,33;                                                        5P      4
510,159,1,1,35;                                                        7P      5
510,161,1,1,37;                                                        9P      6
510,163,1,1,39;                                                       11P      7
510,165,1,1,41;                                                       13P      8
510,167,6,1,43,45,47,49,51,53;                                        15P      9
510,169,1,1,55;                                                       17P     10
510,171,1,1,57;                                                       19P     11
510,173,1,1,59;                                                       21P     12
510,175,1,1,61;                                                       23P     13
510,177,1,1,63;                                                       25P     14
510,179,1,1,65;                                                       27P     15
510,181,1,1,67;                                                       29P     16
510,183,6,1,69,71,73,75,77,79;                                        31P     17
508,4,0,187,1,0,0,0,187,2,1,0,0,187,3,0,0,0,187,2,0,0;                33P     18
508,4,0,187,4,0,0,0,187,5,0,0,0,187,6,0,0,0,187,7,1,0;                35P     19
508,4,0,187,8,0,0,0,187,7,0,0,0,187,9,0,0,0,187,10,1,0;               37P     20
508,4,0,187,11,0,0,0,187,10,0,0,0,187,12,0,0,0,187,13,1,0;            39P     21
508,4,0,187,14,0,0,0,187,13,0,0,0,187,15,0,0,0,187,5,1,0;             41P     22
508,4,0,187,16,0,0,0,187,17,0,0,0,187,18,0,0,0,187,19,0,0;            43P     23
508,1,0,187,3,1,0;                                                    45P     24
508,4,0,187,11,1,0,0,187,14,1,0,0,187,4,1,0,0,187,8,1,0;              47P     25
508,1,0,187,20,0,0;                                                   49P     26
508,1,0,187,21,0,0;                                                   51P     27
508,1,0,187,22,0,0;                                                   53P     28
508,4,0,187,18,1,0,0,187,23,1,0,0,187,24,0,0,0,187,25,0,0;            55P     29
508,4,0,187,17,1,0,0,187,26,1,0,0,187,27,0,0,0,187,23,0,0;            57P     30
508,5,0,187,28,0,0,0,187,29,0,0,0,187,30,1,0,0,187,20,1,0,0,187,      59P     31
30,0,0;                                                               59P     32
508,5,0,187,31,0,0,0,187,32,0,0,0,187,33,1,0,0,187,21,1,0,0,187,      61P     33
33,0,0;                                                               61P     34
508,4,0,187,22,1,0,0,187,34,1,0,0,187,35,0,0,0,187,34,0,0;            63P     35
508,4,0,187,16,1,0,0,187,36,1,0,0,187,37,0,0,0,187,26,0,0;            65P     36
508,4,0,187,19,1,0,0,187,25,1,0,0,187,38,0,0,0,187,36,0,0;            67P     37
508,4,0,187,38,1,0,0,187,24,1,0,0,187,27,1,0,0,187,37,1,0;            69P     38
508,1,0,187,1,1,0;                                                    71P     39
508,4,0,187,12,1,0,0,187,9,1,0,0,187,6,1,0,0,187,15,1,0;              73P     40
508,2,0,187,28,1,0,0,187,29,1,0;                                      75P     41
508,2,0,187,31,1,0,0,187,32,1,0;                                      77P     42
508,1,0,187,35,1,0;                                                   79P     43
126,8,2,0,1,0,0,-3.14159265358979,-3.14159265358979,                  81P     44
-3.14159265358979,-1.5707963267949,-1.5707963267949,0.,0.,            81P     45
1.5707963267949,1.5707963267949,3.14159265358979,                     81P     46
3.14159265358979,3.14159265358979,1.,0.707106781186548,1.,            81P     47
0.707106781186547,1.,0.707106781186547,1.,0.707106781186548,1.,       81P     48
5.,-3.36777869765522D-16,-2.75,5.,-2.75,-2.75,5.,-2.75,               81P     49
1.68388934882761D-16,5.,-2.75,2.75,5.,0.,2.75,5.,2.75,2.75,5.,        81P     50
2.75,1.68388934882761D-16,5.,2.75,-2.75,5.,3.36777869765522D-16,      81P     51
-2.75,-3.14159265358979,3.14159265358979,0.,0.,0.;                    81P     52
126,1,1,0,0,1,0,0.,0.,1.45454545454545,1.45454545454545,1.,1.,        83P     53
5.,0.,-2.75,1.,0.,-2.75,0.,1.45454545454545,0.,0.,0.;                 83P     54
126,8,2,0,1,0,0,-3.14159265358979,-3.14159265358979,                  85P     55
-3.14159265358979,-1.5707963267949,-1.5707963267949,0.,0.,            85P     56
1.5707963267949,1.5707963267949,3.14159265358979,                     85P     57
3.14159265358979,3.14159265358979,1.,0.707106781186548,1.,            85P     58
0.707106781186547,1.,0.707106781186547,1.,0.707106781186548,1.,       85P     59
1.,3.36777869765522D-16,-2.75,1.,2.75,-2.75,1.,2.75,                  85P     60
1.68388934882761D-16,1.,2.75,2.75,1.,0.,2.75,1.,-2.75,2.75,1.,        85P     61
-2.75,1.68388934882761D-16,1.,-2.75,-2.75,1.,                         85P     62
-3.36777869765522D-16,-2.75,-3.14159265358979,3.14159265358979,       85P     63
0.,0.,0.;                                                             85P     64
126,1,1,0,0,1,0,-7.08588973287466,-7.08588973287466,                  87P     65
0.914110267125341,0.914110267125341,1.,1.,1.,5.50000000000003,        87P     66
-100.,1.,5.50000000000001,-20.,-7.08588973287466,                     87P     67
0.914110267125341,0.,0.,0.;                                           87P     68
126,1,1,0,0,1,0,0.,0.,0.4,0.4,1.,1.,5.,5.50000000000003,-100.,        89P     69
1.,5.50000000000003,-100.,0.,0.4,0.,0.,0.;                            89P     70
126,1,1,0,0,1,0,-1.,-1.,7.,7.,1.,1.,5.,5.50000000000001,-20.,5.,      91P     71
5.50000000000003,-100.,-1.,7.,0.,0.,0.;                               91P     72
126,1,1,0,0,1,0,0.,0.,0.4,0.4,1.,1.,5.,5.50000000000001,-20.,1.,      93P     73
5.50000000000001,-20.,0.,0.4,0.,0.,0.;                                93P     74
126,4,2,0,0,0,0,-3.14159265358979,-3.14159265358979,                  95P     75
-3.14159265358979,-1.5707963267949,-1.5707963267949,                  95P     76
-4.03717463500057D-16,-4.03717463500057D-16,                          95P     77
-4.03717463500057D-16,1.,0.707106781186547,1.,0.707106781186547,      95P     78
1.,1.,5.50000000000001,-20.,1.,5.5,-14.5,1.,                          95P     79
4.60170728490984D-15,-14.5,1.,-5.49999999999999,-14.5,1.,             95P     80
-5.49999999999999,-20.,-3.14159265358979,-4.03717463500057D-16,       95P     81
0.,0.,0.;                                                             95P     82
126,4,2,0,0,0,0,4.03717463500057D-16,4.03717463500057D-16,            97P     83
4.03717463500057D-16,1.5707963267949,1.5707963267949,                 97P     84
3.14159265358979,3.14159265358979,3.14159265358979,1.,                97P     85
0.707106781186547,1.,0.707106781186547,1.,5.,-5.49999999999999,       97P     86
-20.,5.,-5.49999999999999,-14.5,5.,4.60170728490984D-15,-14.5,        97P     87
5.,5.5,-14.5,5.,5.50000000000001,-20.,4.03717463500057D-16,           97P     88
3.14159265358979,0.,0.,0.;                                            97P     89
126,1,1,0,0,1,0,0.,0.,0.4,0.4,1.,1.,5.,-5.49999999999999,-20.,        99P     90
1.,-5.49999999999999,-20.,0.,0.4,0.,0.,0.;                            99P     91
126,1,1,0,0,1,0,-4.91411026712534,-4.91411026712534,                 101P     92
3.08588973287466,3.08588973287466,1.,1.,1.,-5.49999999999999,        101P     93
-20.,1.,-5.5,-100.,-4.91411026712534,3.08588973287466,0.,0.,0.;      101P     94
126,1,1,0,0,1,0,-3.,-3.,5.,5.,1.,1.,5.,-5.5,-100.,5.,                103P     95
-5.49999999999999,-20.,-3.,5.,0.,0.,0.;                              103P     96
126,1,1,0,0,1,0,0.,0.,0.4,0.4,1.,1.,5.,-5.5,-100.,1.,-5.5,-100.,     105P     97
0.,0.4,0.,0.,0.;                                                     105P     98
126,4,2,0,0,0,0,-3.14159265358979,-3.14159265358979,                 107P     99
-3.14159265358979,-1.5707963267949,-1.5707963267949,0.,0.,0.,1.,     107P    100
0.707106781186541,1.,0.707106781186541,1.,1.,-5.49999999999997,      107P    101
-100.,1.,-5.49999999999997,-105.5,1.,3.08679110469573D-14,           107P    102
-105.5,1.,5.50000000000003,-105.5,1.,5.50000000000003,-100.,         107P    103
-3.14159265358979,0.,0.,0.,0.;                                       107P    104
126,4,2,0,0,0,0,0.,0.,0.,1.5707963267949,1.5707963267949,            109P    105
3.14159265358979,3.14159265358979,3.14159265358979,1.,               109P    106
0.707106781186541,1.,0.707106781186541,1.,5.,5.50000000000003,       109P    107
-100.,5.,5.50000000000003,-105.5,5.,3.08679110469573D-14,-105.5,     109P    108
5.,-5.49999999999997,-105.5,5.,-5.49999999999997,-100.,0.,           109P    109
3.14159265358979,0.,0.,0.;                                           109P    110
126,1,1,0,0,1,0,-3.08588973287466,-3.08588973287466,                 111P    111
8.91411026712534,8.91411026712534,1.,1.,1.,10.,-100.,1.,             111P    112
9.99999999999998,20.,-3.08588973287466,8.91411026712534,0.,0.,       111P    113
0.;                                                                  111P    114
126,4,2,0,0,0,0,-3.14159265358979,-3.14159265358979,                 113P    115
-3.14159265358979,-1.5707963267949,-1.5707963267949,0.,0.,0.,1.,     113P    116
0.707106781186549,1.,0.707106781186549,1.,1.,-9.99999999999996,      113P    117
-100.,1.,-9.99999999999996,-110.,1.,3.11434565767655D-14,-110.,      113P    118
1.,10.,-110.,1.,10.,-100.,-3.14159265358979,0.,0.,0.,0.;             113P    119
126,1,1,0,0,1,0,-2.91411026712534,-2.91411026712534,                 115P    120
9.08588973287466,9.08588973287466,1.,1.,1.,-10.,20.,1.,              115P    121
-9.99999999999997,-100.,-2.91411026712534,9.08588973287466,0.,       115P    122
0.,0.;                                                               115P    123
126,4,2,0,0,0,0,-3.14159265358979,-3.14159265358979,                 117P    124
-3.14159265358979,-1.5707963267949,-1.5707963267949,                 117P    125
2.66453525910038D-15,2.66453525910038D-15,2.66453525910038D-15,      117P    126
1.,0.707106781186547,1.,0.707106781186548,1.,1.,                     117P    127
9.99999999999998,20.,1.,9.99999999999998,30.,1.,                     117P    128
-1.61554457443258D-14,30.,1.,-10.,30.,1.,-10.,20.,                   117P    129
-3.14159265358979,2.66453525910038D-15,0.,0.,0.;                     117P    130
126,8,2,0,1,0,0,-3.14159265358979,-3.14159265358979,                 119P    131
-3.14159265358979,-1.5707963267949,-1.5707963267949,0.,0.,           119P    132
1.5707963267949,1.5707963267949,3.14159265358979,                    119P    133
3.14159265358979,3.14159265358979,1.,0.707106781186549,1.,           119P    134
0.707106781186548,1.,0.707106781186548,1.,0.707106781186549,1.,      119P    135
0.999999999999996,4.99999999999998,11.5,0.999999999999996,           119P    136
6.49999999999998,11.5,0.999999999999996,6.49999999999998,10.,        119P    137
0.999999999999996,6.49999999999998,8.5,0.999999999999996,            119P    138
4.99999999999998,8.5,0.999999999999996,3.49999999999998,8.5,         119P    139
0.999999999999996,3.49999999999998,10.,0.999999999999996,            119P    140
3.49999999999998,11.5,0.999999999999996,4.99999999999998,11.5,       119P    141
-3.14159265358979,3.14159265358979,0.,0.,0.;                         119P    142
126,8,2,0,1,0,0,-3.14159265358979,-3.14159265358979,                 121P    143
-3.14159265358979,-1.5707963267949,-1.5707963267949,0.,0.,           121P    144
1.5707963267949,1.5707963267949,3.14159265358979,                    121P    145
3.14159265358979,3.14159265358979,1.,0.707106781186549,1.,           121P    146
0.707106781186548,1.,0.707106781186548,1.,0.707106781186549,1.,      121P    147
0.999999999999996,-5.00000000000002,11.5,0.999999999999996,          121P    148
-3.50000000000002,11.5,0.999999999999996,-3.50000000000002,10.,      121P    149
0.999999999999996,-3.50000000000002,8.5,0.999999999999996,           121P    150
-5.00000000000002,8.5,0.999999999999996,-6.50000000000002,8.5,       121P    151
0.999999999999996,-6.50000000000002,10.,0.999999999999996,           121P    152
-6.50000000000002,11.5,0.999999999999996,-5.00000000000002,11.5,     121P    153
-3.14159265358979,3.14159265358979,0.,0.,0.;                         121P    154
126,8,2,0,1,0,0,-3.14159265358979,-3.14159265358979,                 123P    155
-3.14159265358979,-1.5707963267949,-1.5707963267949,0.,0.,           123P    156
1.5707963267949,1.5707963267949,3.14159265358979,                    123P    157
3.14159265358979,3.14159265358979,1.,0.707106781186549,1.,           123P    158
0.707106781186549,1.,0.707106781186545,1.,0.707106781186553,1.,      123P    159
1.,1.49999999999998,20.,1.,1.49999999999998,18.5,1.,                 123P    160
-1.54235081449097D-14,18.5,1.,-1.50000000000002,18.5,1.,             123P    161
-1.50000000000002,20.,1.,-1.50000000000002,21.5,1.,                  123P    162
-1.54235081449097D-14,21.5,1.,1.49999999999998,21.5,1.,              123P    163
1.49999999999998,20.,-3.14159265358979,3.14159265358979,0.,0.,       123P    164
0.;                                                                  123P    165
126,1,1,0,0,1,0,0.1,0.1,0.5,0.5,1.,1.,1.,-9.99999999999997,          125P    166
-100.,5.,-9.99999999999997,-100.,0.1,0.5,0.,0.,0.;                   125P    167
126,1,1,0,0,1,0,-12.,-12.,0.,0.,1.,1.,5.,-10.,20.,5.,                127P    168
-9.99999999999997,-100.,-12.,0.,0.,0.,0.;                            127P    169
126,1,1,0,0,1,0,0.1,0.1,0.5,0.5,1.,1.,1.,-10.,20.,5.,-10.,20.,       129P    170
0.1,0.5,0.,0.,0.;                                                    129P    171
126,1,1,0,0,1,0,0.1,0.1,0.5,0.5,1.,1.,1.,10.,-100.,5.,10.,-100.,     131P    172
0.1,0.5,0.,0.,0.;                                                    131P    173
126,4,2,0,0,0,0,-3.14159265358979,-3.14159265358979,                 133P    174
-3.14159265358979,-1.5707963267949,-1.5707963267949,                 133P    175
-2.22044604925031D-16,-2.22044604925031D-16,                         133P    176
-2.22044604925031D-16,1.,0.707106781186549,1.,0.707106781186548,     133P    177
1.,5.,-9.99999999999996,-100.,5.,-9.99999999999996,-110.,5.,         133P    178
3.11434565767655D-14,-110.,5.,10.,-110.,5.,10.,-100.,                133P    179
-3.14159265358979,-2.22044604925031D-16,0.,0.,0.;                    133P    180
126,4,2,0,0,0,0,0.,0.,0.,1.5707963267949,1.5707963267949,            135P    181
3.14159265358979,3.14159265358979,3.14159265358979,1.,               135P    182
0.707106781186548,1.,0.707106781186549,1.,5.,4.99999999999998,       135P    183
8.5,5.,3.49999999999998,8.5,5.,3.49999999999998,10.,5.,              135P    184
3.49999999999998,11.5,5.,4.99999999999998,11.5,0.,                   135P    185
3.14159265358979,0.,0.,0.;                                           135P    186
126,4,2,0,0,0,0,3.14159265358979,3.14159265358979,                   137P    187
3.14159265358979,4.71238898038469,4.71238898038469,                  137P    188
6.28318530717959,6.28318530717959,6.28318530717959,1.,               137P    189
0.707106781186549,1.,0.707106781186547,1.,5.,4.99999999999998,       137P    190
11.5,5.,6.49999999999998,11.5,5.,6.49999999999998,10.,5.,            137P    191
6.49999999999998,8.5,5.,4.99999999999998,8.5,3.14159265358979,       137P    192
6.28318530717959,0.,0.,0.;                                           137P    193
126,1,1,0,0,1,0,-94.339811320566,-94.339811320566,                   139P    194
-91.6731446538994,-91.6731446538994,1.,1.,5.,4.99999999999998,       139P    195
11.5,0.999999999999996,4.99999999999998,11.5,-94.339811320566,       139P    196
-91.6731446538994,0.,0.,0.;                                          139P    197
126,4,2,0,0,0,0,0.,0.,0.,1.5707963267949,1.5707963267949,            141P    198
3.14159265358979,3.14159265358979,3.14159265358979,1.,               141P    199
0.707106781186548,1.,0.707106781186549,1.,5.,-5.00000000000002,      141P    200
8.5,5.,-6.50000000000002,8.5,5.,-6.50000000000002,10.,5.,            141P    201
-6.50000000000002,11.5,5.,-5.00000000000002,11.5,0.,                 141P    202
3.14159265358979,0.,0.,0.;                                           141P    203
126,4,2,0,0,0,0,3.14159265358979,3.14159265358979,                   143P    204
3.14159265358979,4.71238898038469,4.71238898038469,                  143P    205
6.28318530717959,6.28318530717959,6.28318530717959,1.,               143P    206
0.707106781186549,1.,0.707106781186548,1.,5.,-5.00000000000002,      143P    207
11.5,5.,-3.50000000000002,11.5,5.,-3.50000000000002,10.,5.,          143P    208
-3.50000000000002,8.5,5.,-5.00000000000002,8.5,3.14159265358979,     143P    209
6.28318530717959,0.,0.,0.;                                           143P    210
126,1,1,0,0,1,0,-94.339811320566,-94.339811320566,                   145P    211
-91.6731446538994,-91.6731446538994,1.,1.,5.,-5.00000000000002,      145P    212
11.5,0.999999999999996,-5.00000000000002,11.5,-94.339811320566,      145P    213
-91.6731446538994,0.,0.,0.;                                          145P    214
126,1,1,0,0,1,0,0.666666666666667,0.666666666666667,                 147P    215
3.33333333333333,3.33333333333333,1.,1.,1.,1.49999999999998,20.,     147P    216
5.,1.49999999999998,20.,0.666666666666667,3.33333333333333,0.,       147P    217
0.,0.;                                                               147P    218
126,8,2,0,1,0,0,-3.14159265358979,-3.14159265358979,                 149P    219
-3.14159265358979,-1.5707963267949,-1.5707963267949,0.,0.,           149P    220
1.5707963267949,1.5707963267949,3.14159265358979,                    149P    221
3.14159265358979,3.14159265358979,1.,0.707106781186549,1.,           149P    222
0.707106781186549,1.,0.707106781186545,1.,0.707106781186553,1.,      149P    223
5.,1.49999999999998,20.,5.,1.49999999999998,18.5,5.,                 149P    224
-1.54235081449097D-14,18.5,5.,-1.50000000000002,18.5,5.,             149P    225
-1.50000000000002,20.,5.,-1.50000000000002,21.5,5.,                  149P    226
-1.54235081449097D-14,21.5,5.,1.49999999999998,21.5,5.,              149P    227
1.49999999999998,20.,-3.14159265358979,3.14159265358979,0.,0.,       149P    228
0.;                                                                  149P    229
126,1,1,0,0,1,0,0.1,0.1,0.5,0.5,1.,1.,1.,9.99999999999998,20.,       151P    230
5.,9.99999999999998,20.,0.1,0.5,0.,0.,0.;                            151P    231
126,1,1,0,0,1,0,-12.,-12.,0.,0.,1.,1.,5.,10.,-100.,5.,               153P    232
9.99999999999998,20.,-12.,0.,0.,0.,0.;                               153P    233
126,4,2,0,0,0,0,-3.14159265358979,-3.14159265358979,                 155P    234
-3.14159265358979,-1.5707963267949,-1.5707963267949,                 155P    235
6.66133814775094D-16,6.66133814775094D-16,6.66133814775094D-16,      155P    236
1.,0.707106781186548,1.,0.707106781186548,1.,5.,                     155P    237
9.99999999999998,20.,5.,9.99999999999998,30.,5.,                     155P    238
-7.27366154732461D-15,30.,5.,-10.,30.,5.,-10.,20.,                   155P    239
-3.14159265358979,6.66133814775094D-16,0.,0.,0.;                     155P    240
128,1,8,1,2,0,1,0,0,1,0.,0.,1.45454545454545,1.45454545454545,       157P    241
-3.14159265358979,-3.14159265358979,-3.14159265358979,               157P    242
-1.5707963267949,-1.5707963267949,0.,0.,1.5707963267949,             157P    243
1.5707963267949,3.14159265358979,3.14159265358979,                   157P    244
3.14159265358979,1.,1.,0.707106781186548,0.707106781186548,1.,       157P    245
1.,0.707106781186548,0.707106781186548,1.,1.,0.707106781186548,      157P    246
0.707106781186548,1.,1.,0.707106781186548,0.707106781186548,1.,      157P    247
1.,5.,0.,-2.75,1.,0.,-2.75,5.,-2.75,-2.75,1.,-2.75,-2.75,5.,         157P    248
-2.75,0.,1.,-2.75,0.,5.,-2.75,2.75,1.,-2.75,2.75,5.,0.,2.75,1.,      157P    249
0.,2.75,5.,2.75,2.75,1.,2.75,2.75,5.,2.75,0.,1.,2.75,0.,5.,2.75,     157P    250
-2.75,1.,2.75,-2.75,5.,0.,-2.75,1.,0.,-2.75,0.,1.45454545454545,     157P    251
-3.14159265358979,3.14159265358979;                                  157P    252
128,1,1,1,1,0,0,1,0,0,-2.22044604925031D-16,                         159P    253
-2.22044604925031D-16,8.,8.,0.,0.,0.4,0.4,1.,1.,1.,1.,5.,            159P    254
5.50000000000003,-100.,5.,5.50000000000001,-20.,1.,                  159P    255
5.50000000000003,-100.,1.,5.50000000000001,-20.,                     159P    256
-2.22044604925031D-16,8.,0.,0.4;                                     159P    257
128,1,4,1,2,0,0,0,0,0,0.,0.,0.727272727272727,0.727272727272727,     161P    258
4.03717463500057D-16,4.03717463500057D-16,4.03717463500057D-16,      161P    259
1.5707963267949,1.5707963267949,3.14159265358979,                    161P    260
3.14159265358979,3.14159265358979,1.,1.,0.707106781186548,           161P    261
0.707106781186548,1.,1.,0.707106781186548,0.707106781186548,1.,      161P    262
1.,5.,-5.49999999999999,-20.,1.,-5.49999999999999,-20.,5.,           161P    263
-5.49999999999999,-14.5,1.,-5.49999999999999,-14.5,5.,               161P    264
5.93768587683801D-15,-14.5,1.,5.93768587683801D-15,-14.5,5.,5.5,     161P    265
-14.5,1.,5.5,-14.5,5.,5.50000000000001,-20.,1.,5.50000000000001,     161P    266
-20.,0.,0.727272727272727,4.03717463500057D-16,3.14159265358979;     161P    267
128,1,1,1,1,0,0,1,0,0,0.,0.,8.,8.,0.,0.,0.4,0.4,1.,1.,1.,1.,5.,      163P    268
-5.49999999999999,-20.,5.,-5.5,-100.,1.,-5.5,-20.,1.,-5.5,-100.,     163P    269
0.,8.,0.,0.4;                                                        163P    270
128,1,4,1,2,0,0,0,0,0,0.,0.,0.727272727272727,0.727272727272727,     165P    271
0.,0.,0.,1.5707963267949,1.5707963267949,3.14159265358979,           165P    272
3.14159265358979,3.14159265358979,1.,1.,0.707106781186548,           165P    273
0.707106781186548,1.,1.,0.707106781186548,0.707106781186548,1.,      165P    274
1.,5.,5.50000000000003,-100.,1.,5.50000000000003,-100.,5.,           165P    275
5.50000000000003,-105.5,1.,5.50000000000003,-105.5,5.,               165P    276
3.05311331771918D-14,-105.5,1.,3.05311331771918D-14,-105.5,5.,       165P    277
-5.49999999999997,-105.5,1.,-5.49999999999997,-105.5,5.,             165P    278
-5.49999999999997,-100.,1.,-5.49999999999997,-100.,0.,               165P    279
0.727272727272727,0.,3.14159265358979;                               165P    280
128,1,1,1,1,0,0,1,0,0,-6.82822053425068,-6.82822053425068,           167P    281
7.17177946574932,7.17177946574932,-0.722060306342851,                167P    282
-0.722060306342851,1.27793969365715,1.27793969365715,1.,1.,1.,       167P    283
1.,1.,-10.,-110.,1.,-10.,30.,1.,10.,-110.,1.,10.,30.,                167P    284
-6.82822053425068,7.17177946574932,-0.722060306342851,               167P    285
1.27793969365715;                                                    167P    286
128,1,1,1,1,0,0,1,0,0,0.,0.,12.,12.,0.1,0.1,0.5,0.5,1.,1.,1.,1.,     169P    287
1.,-10.,20.,1.,-9.99999999999997,-100.,5.,-10.,20.,5.,               169P    288
-9.99999999999997,-100.,0.,12.,0.1,0.5;                              169P    289
128,1,4,1,2,0,0,0,0,0,0.1,0.1,0.5,0.5,-3.14159265358979,             171P    290
-3.14159265358979,-3.14159265358979,-1.5707963267949,                171P    291
-1.5707963267949,0.,0.,0.,1.,1.,0.707106781186548,                   171P    292
0.707106781186548,1.,1.,0.707106781186548,0.707106781186548,1.,      171P    293
1.,5.,-9.99999999999996,-100.,1.,-9.99999999999996,-100.,5.,         171P    294
-9.99999999999996,-110.,1.,-9.99999999999996,-110.,5.,               171P    295
3.05311331771918D-14,-110.,1.,3.05311331771918D-14,-110.,5.,10.,     171P    296
-110.,1.,10.,-110.,5.,10.,-100.,1.,10.,-100.,0.1,0.5,                171P    297
-3.14159265358979,0.;                                                171P    298
128,1,8,1,2,0,1,0,0,1,-94.339811320566,-94.339811320566,             173P    299
-91.6731446538994,-91.6731446538994,-3.14159265358979,               173P    300
-3.14159265358979,-3.14159265358979,-1.5707963267949,                173P    301
-1.5707963267949,0.,0.,1.5707963267949,1.5707963267949,              173P    302
3.14159265358979,3.14159265358979,3.14159265358979,1.,1.,            173P    303
0.707106781186548,0.707106781186548,1.,1.,0.707106781186548,         173P    304
0.707106781186548,1.,1.,0.707106781186548,0.707106781186548,1.,      173P    305
1.,0.707106781186548,0.707106781186548,1.,1.,0.999999999999996,      173P    306
4.99999999999998,11.5,5.,4.99999999999998,11.5,                      173P    307
0.999999999999996,3.49999999999998,11.5,5.,3.49999999999998,         173P    308
11.5,0.999999999999996,3.49999999999998,10.,5.,3.49999999999998,     173P    309
10.,0.999999999999996,3.49999999999998,8.5,5.,3.49999999999998,      173P    310
8.5,0.999999999999996,4.99999999999998,8.5,5.,4.99999999999998,      173P    311
8.5,0.999999999999996,6.49999999999998,8.5,5.,6.49999999999998,      173P    312
8.5,0.999999999999996,6.49999999999998,10.,5.,6.49999999999998,      173P    313
10.,0.999999999999996,6.49999999999998,11.5,5.,6.49999999999998,     173P    314
11.5,0.999999999999996,4.99999999999998,11.5,5.,                     173P    315
4.99999999999998,11.5,-94.339811320566,-91.6731446538994,            173P    316
-3.14159265358979,3.14159265358979;                                  173P    317
128,1,8,1,2,0,1,0,0,1,-94.339811320566,-94.339811320566,             175P    318
-91.6731446538994,-91.6731446538994,-3.14159265358979,               175P    319
-3.14159265358979,-3.14159265358979,-1.5707963267949,                175P    320
-1.5707963267949,0.,0.,1.5707963267949,1.5707963267949,              175P    321
3.14159265358979,3.14159265358979,3.14159265358979,1.,1.,            175P    322
0.707106781186548,0.707106781186548,1.,1.,0.707106781186548,         175P    323
0.707106781186548,1.,1.,0.707106781186548,0.707106781186548,1.,      175P    324
1.,0.707106781186548,0.707106781186548,1.,1.,0.999999999999996,      175P    325
-5.00000000000002,11.5,5.,-5.00000000000002,11.5,                    175P    326
0.999999999999996,-6.50000000000002,11.5,5.,-6.50000000000002,       175P    327
11.5,0.999999999999996,-6.50000000000002,10.,5.,                     175P    328
-6.50000000000002,10.,0.999999999999996,-6.50000000000002,8.5,       175P    329
5.,-6.50000000000002,8.5,0.999999999999996,-5.00000000000002,        175P    330
8.5,5.,-5.00000000000002,8.5,0.999999999999996,                      175P    331
-3.50000000000002,8.5,5.,-3.50000000000002,8.5,                      175P    332
0.999999999999996,-3.50000000000002,10.,5.,-3.50000000000002,        175P    333
10.,0.999999999999996,-3.50000000000002,11.5,5.,                     175P    334
-3.50000000000002,11.5,0.999999999999996,-5.00000000000002,11.5,     175P    335
5.,-5.00000000000002,11.5,-94.339811320566,-91.6731446538994,        175P    336
-3.14159265358979,3.14159265358979;                                  175P    337
128,1,8,1,2,0,1,0,0,1,0.666666666666667,0.666666666666667,           177P    338
3.33333333333333,3.33333333333333,-3.14159265358979,                 177P    339
-3.14159265358979,-3.14159265358979,-1.5707963267949,                177P    340
-1.5707963267949,0.,0.,1.5707963267949,1.5707963267949,              177P    341
3.14159265358979,3.14159265358979,3.14159265358979,1.,1.,            177P    342
0.707106781186548,0.707106781186548,1.,1.,0.707106781186548,         177P    343
0.707106781186548,1.,1.,0.707106781186548,0.707106781186548,1.,      177P    344
1.,0.707106781186548,0.707106781186548,1.,1.,1.,                     177P    345
1.49999999999998,20.,5.,1.49999999999998,20.,1.,                     177P    346
1.49999999999998,21.5,5.,1.49999999999998,21.5,1.,                   177P    347
-1.53316596349736D-14,21.5,5.,-1.53316596349736D-14,21.5,1.,         177P    348
-1.50000000000002,21.5,5.,-1.50000000000002,21.5,1.,                 177P    349
-1.50000000000002,20.,5.,-1.50000000000002,20.,1.,                   177P    350
-1.50000000000002,18.5,5.,-1.50000000000002,18.5,1.,                 177P    351
-1.53316596349736D-14,18.5,5.,-1.53316596349736D-14,18.5,1.,         177P    352
1.49999999999998,18.5,5.,1.49999999999998,18.5,1.,                   177P    353
1.49999999999998,20.,5.,1.49999999999998,20.,0.666666666666667,      177P    354
3.33333333333333,-3.14159265358979,3.14159265358979;                 177P    355
128,1,1,1,1,0,0,1,0,0,0.,0.,12.,12.,0.1,0.1,0.5,0.5,1.,1.,1.,1.,     179P    356
1.,10.,-100.,1.,9.99999999999998,20.,5.,10.,-100.,5.,                179P    357
9.99999999999998,20.,0.,12.,0.1,0.5;                                 179P    358
128,1,4,1,2,0,0,0,0,0,0.1,0.1,0.500000000000001,                     181P    359
0.500000000000001,-3.14159265358979,-3.14159265358979,               181P    360
-3.14159265358979,-1.5707963267949,-1.5707963267949,                 181P    361
2.66453525910038D-15,2.66453525910038D-15,2.66453525910038D-15,      181P    362
1.,1.,0.707106781186547,0.707106781186547,1.,1.,                     181P    363
0.707106781186547,0.707106781186547,1.,1.,5.,9.99999999999998,       181P    364
20.,1.,9.99999999999998,20.,5.,9.99999999999999,30.,1.,              181P    365
9.99999999999999,30.,5.,-2.22044604925031D-15,30.,1.,                181P    366
-2.22044604925031D-15,30.,5.,-9.99999999999999,30.,1.,               181P    367
-9.99999999999999,30.,5.,-10.,20.,1.,-10.,20.,0.1,                   181P    368
0.500000000000001,-3.14159265358979,2.66453525910038D-15;            181P    369
128,1,1,1,1,0,0,1,0,0,-7.,-7.,7.,7.,-1.,-1.,1.,1.,1.,1.,1.,1.,       183P    370
5.,-10.,30.,5.,-10.,-110.,5.,10.,30.,5.,10.,-110.,-7.,7.,-1.,1.;     183P    371
502,26,5.,3.36777869765522D-16,-2.75,1.,3.36777869765522D-16,        185P    372
-2.75,1.,5.50000000000003,-100.,1.,5.50000000000001,-20.,5.,         185P    373
5.50000000000003,-100.,5.,5.50000000000001,-20.,1.,                  185P    374
-5.49999999999999,-20.,5.,-5.49999999999999,-20.,1.,-5.5,-100.,      185P    375
5.,-5.5,-100.,1.,10.,-100.,1.,9.99999999999998,20.,1.,               185P    376
-9.99999999999997,-100.,1.,-10.,20.,0.999999999999996,               185P    377
4.99999999999998,11.5,0.999999999999996,-5.00000000000002,11.5,      185P    378
1.,1.49999999999998,20.,5.,-9.99999999999997,-100.,5.,-10.,20.,      185P    379
5.,10.,-100.,5.,4.99999999999998,8.5,5.,4.99999999999998,11.5,       185P    380
5.,-5.00000000000002,8.5,5.,-5.00000000000002,11.5,5.,               185P    381
1.49999999999998,20.,5.,9.99999999999998,20.;                        185P    382
504,38,81,185,1,185,1,83,185,1,185,2,85,185,2,185,2,87,185,3,        187P    383
185,4,89,185,5,185,3,91,185,6,185,5,93,185,6,185,4,95,185,4,185,     187P    384
7,97,185,8,185,6,99,185,8,185,7,101,185,7,185,9,103,185,10,185,      187P    385
8,105,185,10,185,9,107,185,9,185,3,109,185,5,185,10,111,185,11,      187P    386
185,12,113,185,13,185,11,115,185,14,185,13,117,185,12,185,14,        187P    387
119,185,15,185,15,121,185,16,185,16,123,185,17,185,17,125,185,       187P    388
13,185,18,127,185,19,185,18,129,185,14,185,19,131,185,11,185,20,     187P    389
133,185,18,185,20,135,185,21,185,22,137,185,22,185,21,139,185,       187P    390
22,185,15,141,185,23,185,24,143,185,24,185,23,145,185,24,185,16,     187P    391
147,185,17,185,25,149,185,25,185,25,151,185,12,185,26,153,185,       187P    392
20,185,26,155,185,26,185,19;                                         187P    393
406,1,13Hソリッド1;                                              189P    394
314,74.9019607843137,74.9019607843137,74.9019607843137,;             191P    395
S      1G      3D    192P    395                                        T      1
