                                                                        S      1
,,,14Hver7-shaft-6mm,22HAutodesk Inventor 2016,7Hunknown,32,38,7,99,15,,G      1
1.,2,2HMM,1,0.08,15H20160605.095416,0.01,10000.,6H七海,,11,0,15H201606G      2
04.112832;                                                              G      3
     186       1                                                00000000D      1
     186             -35       1       0                               0D      2
     514       2                                                00010000D      3
     514                       1       1                               0D      4
     510       3                                                00010000D      5
     510             -35       1       1                               0D      6
     510       4                                                00010000D      7
     510             -35       1       1                               0D      8
     510       5                                                00010000D      9
     510             -35       1       1                               0D     10
     508       6                                                00010000D     11
     508                       1       1                               0D     12
     508       7                                                00010000D     13
     508                       1       1                               0D     14
     508       8                                                00010000D     15
     508                       1       1                               0D     16
     126       9                                                00010000D     17
     126       0               9       0                               0D     18
     126      18                                                00010000D     19
     126       0               2       0                               0D     20
     126      20                                                00010000D     21
     126       0               9       0                               0D     22
     128      29                                                00010000D     23
     128       0     -35      11       0                               0D     24
     128      40                                                00010000D     25
     128       0     -35       2       0                               0D     26
     128      42                                                00010000D     27
     128       0     -35       3       0                               0D     28
     502      45                                                00010000D     29
     502                       1       1                               0D     30
     504      46                                                00010001D     31
     504                       1       1                               0D     32
     406      47                                                00000000D     33
     406                       1      15                               0D     34
     314      48                                                00000200D     35
     314                       1       0                               0D     36
186,3,1,0,0,1,33;                                                      1P      1
514,3,5,1,7,1,9,1;                                                     3P      2
510,23,1,1,11;                                                         5P      3
510,25,1,1,13;                                                         7P      4
510,27,1,1,15;                                                         9P      5
508,4,0,31,1,0,0,0,31,2,1,0,0,31,3,0,0,0,31,2,0,0;                    11P      6
508,1,0,31,3,1,0;                                                     13P      7
508,1,0,31,1,1,0;                                                     15P      8
126,8,2,0,1,0,0,-3.14159265358979,-3.14159265358979,                  17P      9
-3.14159265358979,-1.5707963267949,-1.5707963267949,0.,0.,            17P     10
1.5707963267949,1.5707963267949,3.14159265358979,                     17P     11
3.14159265358979,3.14159265358979,1.,0.707106781186548,1.,            17P     12
0.707106781186548,1.,0.707106781186548,1.,0.707106781186548,1.,       17P     13
10.,3.,3.67394039744206D-16,10.,3.,3.,10.,-1.83697019872103D-16,      17P     14
3.,10.,-3.,3.,10.,-3.,0.,10.,-3.,-3.,10.,-1.83697019872103D-16,       17P     15
-3.,10.,3.,-3.,10.,3.,-3.67394039744206D-16,-3.14159265358979,        17P     16
3.14159265358979,0.,0.,0.;                                            17P     17
126,1,1,0,0,1,0,-3.33333333333333,-3.33333333333333,0.,0.,1.,1.,      19P     18
10.,3.,0.,0.,3.,0.,-3.33333333333333,0.,0.,0.,0.;                     19P     19
126,8,2,0,1,0,0,-3.14159265358979,-3.14159265358979,                  21P     20
-3.14159265358979,-1.5707963267949,-1.5707963267949,0.,0.,            21P     21
1.5707963267949,1.5707963267949,3.14159265358979,                     21P     22
3.14159265358979,3.14159265358979,1.,0.707106781186548,1.,            21P     23
0.707106781186548,1.,0.707106781186548,1.,0.707106781186548,1.,       21P     24
0.,3.,-3.67394039744206D-16,0.,3.,-3.,0.,-1.83697019872103D-16,       21P     25
-3.,0.,-3.,-3.,0.,-3.,0.,0.,-3.,3.,0.,-1.83697019872103D-16,3.,       21P     26
0.,3.,3.,0.,3.,3.67394039744206D-16,-3.14159265358979,                21P     27
3.14159265358979,0.,0.,0.;                                            21P     28
128,1,8,1,2,0,1,0,0,1,0.,0.,3.33333333333333,3.33333333333333,        23P     29
-3.14159265358979,-3.14159265358979,-3.14159265358979,                23P     30
-1.5707963267949,-1.5707963267949,0.,0.,1.5707963267949,              23P     31
1.5707963267949,3.14159265358979,3.14159265358979,                    23P     32
3.14159265358979,1.,1.,0.707106781186548,0.707106781186548,1.,        23P     33
1.,0.707106781186548,0.707106781186548,1.,1.,0.707106781186548,       23P     34
0.707106781186548,1.,1.,0.707106781186548,0.707106781186548,1.,       23P     35
1.,10.,3.,0.,0.,3.,0.,10.,3.,3.,0.,3.,3.,10.,0.,3.,0.,0.,3.,10.,      23P     36
-3.,3.,0.,-3.,3.,10.,-3.,0.,0.,-3.,0.,10.,-3.,-3.,0.,-3.,-3.,         23P     37
10.,0.,-3.,0.,0.,-3.,10.,3.,-3.,0.,3.,-3.,10.,3.,0.,0.,3.,0.,0.,      23P     38
3.33333333333333,-3.14159265358979,3.14159265358979;                  23P     39
128,1,1,1,1,0,0,1,0,0,-0.3,-0.3,0.3,0.3,-0.3,-0.3,0.3,0.3,1.,1.,      25P     40
1.,1.,0.,-3.,-3.,0.,-3.,3.,0.,3.,-3.,0.,3.,3.,-0.3,0.3,-0.3,0.3;      25P     41
128,1,1,1,1,0,0,1,0,0,-0.3,-0.3,0.3,0.3,-0.3,-0.3,0.3,0.3,1.,1.,      27P     42
1.,1.,10.,-3.,3.,10.,-3.,-3.,10.,3.,3.,10.,3.,-3.,-0.3,0.3,-0.3,      27P     43
0.3;                                                                  27P     44
502,2,10.,3.,3.67394039744206D-16,0.,3.,3.67394039744206D-16;         29P     45
504,3,17,29,1,29,1,19,29,1,29,2,21,29,2,29,2;                         31P     46
406,1,13Hソリッド1;                                               33P     47
314,74.9019607843137,74.9019607843137,74.9019607843137,;              35P     48
S      1G      3D     36P     48                                        T      1
