  0
SECTION
  2
HEADER
  9
$ACADVER
  1
AC1003
  9
$INSBASE
 10
0.000000
 20
0.000000
  9
$EXTMIN
 10
0.000000
 20
0.000000
  9
$EXTMAX
 10
153.368421
 20
106.052632
  9
$LIMMIN
 10
0.000000
 20
0.000000
  9
$LIMMAX
 10
153.368421
 20
106.052632
  9
$VIEWCTR
 10
76.684211
 20
53.026316
  9
$VIEWSIZE
 40
106.052632
  0
ENDSEC
  0
SECTION
  2
TABLES
  0
TABLE
  2
LTYPE
 70
     4
  0
LTYPE
  2
CONTINUOUS
 70
    64
  3
SolidLine
 72
    65
 73
     0
 40
0.0
  0
LTYPE
  2
HIDDEN
 70
    64
  3
------------------------
 72
    65
 73
     2
 40
1.631579
 49
1.087719
 49
-0.543860
  0
LTYPE
  2
DASHDOT
 70
    64
  3
--?--?--?--?--?--?--?--
 72
    65
 73
     4
 40
6.526316
 49
4.894737
 49
-0.543860
 49
0.543860
 49
-0.543860
  0
LTYPE
  2
DIVIDE
 70
    64
  3
--??--??--??--??--??--
 72
    65
 73
     6
 40
8.157895
 49
5.438596
 49
-0.543860
 49
0.543860
 49
-0.543860
 49
0.543860
 49
-0.543860
  0
ENDTAB
  0
TABLE
  2
LAYER
 70
     5
  0
LAYER
  2
0
 70
    64
 62
     7
  6
CONTINUOUS
  0
LAYER
  2
HIDDEN
 70
    64
 62
     2
  6
HIDDEN
  0
LAYER
  2
DASHDOT
 70
    64
 62
     6
  6
DASHDOT
  0
LAYER
  2
DIVIDE
 70
    64
 62
     5
  6
DIVIDE
  0
ENDTAB
  0
TABLE
  2
STYLE
 70
     1
  0
STYLE
  2
STANDARD
 70
    64
 40
0.0
 41
1.0
 50
0.0
 71
     0
 42
0.2
  3
TXT
  4

  0
STYLE
  2
KANJI
 70
    64
 40
0.0
 41
1.0
 50
0.0
 71
     0
 42
0.2
  3
TXT
  4
BIGFONT
  0
ENDTAB
  0
TABLE
  2
VIEW
 70
     0
  0
ENDTAB
  0
ENDSEC
  0
SECTION
  2
BLOCKS
  0
ENDSEC
  0
SECTION
  2
ENTITIES
  0
TEXT
  8
0
 62
     7
 10
5.438597
 20
2.719298
 40
2.175439
 41
1.000000
  1
KHK DS1-60   É^ÉbÉv  í«â¡çH
  7
KANJI
 50
0.000000
 51
0.000000
  0
ARC
  8
0
 62
     7
 10
129.846481
 20
99.036201
 40
2.039474
 50
10.0
 51
180.0
  0
ARC
  8
0
 62
     7
 10
133.863464
 20
99.744499
 40
2.039474
 50
180.0
 51
10.0
  0
LINE
  8
0
 62
     5
 10
33.763157
 20
53.756142
 11
33.763157
 21
31.629827
  0
POLYLINE
  8
0
 62
     5
 66
     1
 70
     2
  0
VERTEX
  8
0
 10
34.307018
 20
32.989475
  0
VERTEX
  8
0
 10
33.763157
 20
34.892986
  0
VERTEX
  8
0
 10
33.219299
 20
32.989475
  0
SEQEND
  0
POLYLINE
  8
0
 62
     5
 66
     1
 70
     2
  0
VERTEX
  8
0
 10
33.219299
 20
52.396496
  0
VERTEX
  8
0
 10
33.763157
 20
50.492985
  0
VERTEX
  8
0
 10
34.307018
 20
52.396496
  0
SEQEND
  0
LINE
  8
0
 62
     5
 10
48.447369
 20
34.892986
 11
32.947369
 21
34.892986
  0
LINE
  8
0
 62
     5
 10
48.447369
 20
50.492985
 11
32.947369
 21
50.492985
  0
TEXT
  8
0
 62
     7
 10
32.675438
 20
37.023247
 40
3.154386
 41
1.000000
  1
%%c15.6
  7
KANJI
 50
90.000000
 51
0.000000
  0
LINE
  8
0
 62
     5
 10
28.868422
 20
16.442986
 11
28.868422
 21
68.942986
  0
POLYLINE
  8
0
 62
     5
 66
     1
 70
     2
  0
VERTEX
  8
0
 10
28.324562
 20
18.346495
  0
VERTEX
  8
0
 10
28.868422
 20
16.442986
  0
VERTEX
  8
0
 10
29.412281
 20
18.346495
  0
SEQEND
  0
POLYLINE
  8
0
 62
     5
 66
     1
 70
     2
  0
VERTEX
  8
0
 10
29.412281
 20
67.039474
  0
VERTEX
  8
0
 10
28.868422
 20
68.942986
  0
VERTEX
  8
0
 10
28.324562
 20
67.039474
  0
SEQEND
  0
LINE
  8
0
 62
     5
 10
48.447369
 20
16.442986
 11
28.052631
 21
16.442986
  0
LINE
  8
0
 62
     5
 10
48.447369
 20
68.942986
 11
28.052631
 21
68.942986
  0
TEXT
  8
0
 62
     7
 10
27.780703
 20
34.972900
 40
3.154386
 41
1.000000
  1
(%%c52.5)
  7
KANJI
 50
90.000000
 51
0.000000
  0
LINE
  8
0
 62
     5
 10
80.938599
 20
68.942986
 11
80.938599
 21
16.442986
  0
POLYLINE
  8
0
 62
     5
 66
     1
 70
     2
  0
VERTEX
  8
0
 10
81.482452
 20
67.039474
  0
VERTEX
  8
0
 10
80.938599
 20
68.942986
  0
VERTEX
  8
0
 10
80.394737
 20
67.039474
  0
SEQEND
  0
POLYLINE
  8
0
 62
     5
 66
     1
 70
     2
  0
VERTEX
  8
0
 10
80.394737
 20
18.346495
  0
VERTEX
  8
0
 10
80.938599
 20
16.442986
  0
VERTEX
  8
0
 10
81.482452
 20
18.346495
  0
SEQEND
  0
LINE
  8
0
 62
     5
 10
62.447369
 20
68.942986
 11
81.754379
 21
68.942986
  0
LINE
  8
0
 62
     5
 10
62.447369
 20
16.442986
 11
81.754379
 21
16.442986
  0
TEXT
  8
0
 62
     7
 10
80.394737
 20
34.972897
 40
3.154386
 41
1.000000
  1
(%%c52.5)
  7
KANJI
 50
90.000000
 51
0.000000
  0
LINE
  8
0
 62
     5
 10
85.289474
 20
73.692986
 11
85.289474
 21
11.692986
  0
POLYLINE
  8
0
 62
     5
 66
     1
 70
     2
  0
VERTEX
  8
0
 10
85.833336
 20
71.789474
  0
VERTEX
  8
0
 10
85.289474
 20
73.692986
  0
VERTEX
  8
0
 10
84.745613
 20
71.789474
  0
SEQEND
  0
POLYLINE
  8
0
 62
     5
 66
     1
 70
     2
  0
VERTEX
  8
0
 10
84.745613
 20
13.596495
  0
VERTEX
  8
0
 10
85.289474
 20
11.692986
  0
VERTEX
  8
0
 10
85.833336
 20
13.596495
  0
SEQEND
  0
LINE
  8
0
 62
     5
 10
62.447369
 20
73.692986
 11
86.105263
 21
73.692986
  0
LINE
  8
0
 62
     5
 10
62.447369
 20
11.692986
 11
86.105263
 21
11.692986
  0
TEXT
  8
0
 62
     7
 10
84.745613
 20
39.073601
 40
3.154386
 41
1.000000
  1
%%c62
  7
KANJI
 50
90.000000
 51
0.000000
  0
LINE
  8
0
 62
     5
 10
56.210526
 20
81.307022
 11
46.684212
 21
81.307022
  0
POLYLINE
  8
0
 62
     5
 66
     1
 70
     2
  0
VERTEX
  8
0
 10
48.043861
 20
80.763161
  0
VERTEX
  8
0
 10
49.947369
 20
81.307022
  0
VERTEX
  8
0
 10
48.043861
 20
81.850883
  0
SEQEND
  0
POLYLINE
  8
0
 62
     5
 66
     1
 70
     2
  0
VERTEX
  8
0
 10
54.850876
 20
81.850883
  0
VERTEX
  8
0
 10
52.947369
 20
81.307022
  0
VERTEX
  8
0
 10
54.850876
 20
80.763161
  0
SEQEND
  0
LINE
  8
0
 62
     5
 10
49.947369
 20
73.692986
 11
49.947369
 21
82.122810
  0
LINE
  8
0
 62
     5
 10
52.947369
 20
73.692986
 11
52.947369
 21
82.122810
  0
TEXT
  8
0
 62
     7
 10
48.371841
 20
81.742111
 40
3.154386
 41
1.000000
  1
(3)
  7
KANJI
 50
0.000000
 51
0.000000
  0
LINE
  8
DASHDOT
 62
     7
 10
46.815788
 20
72.692986
 11
56.078949
 21
72.692986
  0
LINE
  8
DASHDOT
 62
     7
 10
46.815788
 20
12.692986
 11
56.078949
 21
12.692986
  0
LINE
  8
DASHDOT
 62
     7
 10
46.815788
 20
42.692986
 11
64.078949
 21
42.692986
  0
LINE
  8
0
 62
     5
 10
49.947369
 20
73.692986
 11
49.947369
 21
68.942986
  0
LINE
  8
0
 62
     5
 10
52.947369
 20
68.942986
 11
52.947369
 21
73.692986
  0
LINE
  8
0
 62
     4
 10
48.447369
 20
71.442986
 11
54.447369
 21
71.442986
  0
LINE
  8
0
 62
     4
 10
48.447369
 20
13.942986
 11
54.447369
 21
13.942986
  0
POLYLINE
  8
0
 62
     4
 66
     1
 70
     2
  0
VERTEX
  8
0
 10
48.447369
 20
68.942986
  0
VERTEX
  8
0
 10
49.947369
 20
68.942986
  0
VERTEX
  8
0
 10
49.947369
 20
50.492985
  0
VERTEX
  8
0
 10
48.447369
 20
50.492985
  0
SEQEND
  0
POLYLINE
  8
0
 62
     4
 66
     1
 70
     2
  0
VERTEX
  8
0
 10
48.447369
 20
34.892986
  0
VERTEX
  8
0
 10
49.947369
 20
34.892986
  0
VERTEX
  8
0
 10
49.947369
 20
16.442986
  0
VERTEX
  8
0
 10
48.447369
 20
16.442986
  0
SEQEND
  0
POLYLINE
  8
0
 62
     4
 66
     1
 70
     2
  0
VERTEX
  8
0
 10
62.447369
 20
46.692986
  0
VERTEX
  8
0
 10
62.447369
 20
46.692986
  0
VERTEX
  8
0
 10
48.447369
 20
46.692986
  0
VERTEX
  8
0
 10
48.447369
 20
46.692986
  0
VERTEX
  8
0
 10
48.447369
 20
46.692986
  0
VERTEX
  8
0
 10
48.447369
 20
38.692986
  0
SEQEND
  0
POLYLINE
  8
0
 62
     4
 66
     1
 70
     2
  0
VERTEX
  8
0
 10
48.447369
 20
38.692986
  0
VERTEX
  8
0
 10
48.447369
 20
38.692986
  0
VERTEX
  8
0
 10
62.447369
 20
38.692986
  0
VERTEX
  8
0
 10
62.447369
 20
38.692986
  0
VERTEX
  8
0
 10
62.447369
 20
38.692986
  0
VERTEX
  8
0
 10
62.447369
 20
46.692986
  0
SEQEND
  0
LINE
  8
0
 62
     5
 10
54.447369
 20
11.692986
 11
62.447369
 21
11.692986
  0
LINE
  8
0
 62
     5
 10
54.447369
 20
16.442986
 11
62.447369
 21
16.442986
  0
LINE
  8
0
 62
     5
 10
54.447369
 20
68.942986
 11
62.447369
 21
68.942986
  0
LINE
  8
0
 62
     5
 10
54.447369
 20
73.692986
 11
62.447369
 21
73.692986
  0
LINE
  8
0
 62
     5
 10
62.447369
 20
51.692986
 11
62.447369
 21
73.692986
  0
LINE
  8
0
 62
     5
 10
48.447369
 20
90.008774
 11
62.447369
 21
90.008774
  0
POLYLINE
  8
0
 62
     5
 66
     1
 70
     2
  0
VERTEX
  8
0
 10
50.350876
 20
90.552635
  0
VERTEX
  8
0
 10
48.447369
 20
90.008774
  0
VERTEX
  8
0
 10
50.350876
 20
89.464912
  0
SEQEND
  0
POLYLINE
  8
0
 62
     5
 66
     1
 70
     2
  0
VERTEX
  8
0
 10
60.543861
 20
89.464912
  0
VERTEX
  8
0
 10
62.447369
 20
90.008774
  0
VERTEX
  8
0
 10
60.543861
 20
90.552635
  0
SEQEND
  0
LINE
  8
0
 62
     5
 10
48.447369
 20
73.692986
 11
48.447369
 21
90.824562
  0
LINE
  8
0
 62
     5
 10
62.447369
 20
73.692986
 11
62.447369
 21
90.824562
  0
TEXT
  8
0
 62
     7
 10
53.397018
 20
90.443863
 40
3.154386
 41
1.000000
  1
14
  7
KANJI
 50
0.000000
 51
0.000000
  0
LINE
  8
0
 62
     5
 10
48.447369
 20
85.657898
 11
54.447369
 21
85.657898
  0
POLYLINE
  8
0
 62
     5
 66
     1
 70
     2
  0
VERTEX
  8
0
 10
50.350876
 20
86.201759
  0
VERTEX
  8
0
 10
48.447369
 20
85.657898
  0
VERTEX
  8
0
 10
50.350876
 20
85.114037
  0
SEQEND
  0
POLYLINE
  8
0
 62
     5
 66
     1
 70
     2
  0
VERTEX
  8
0
 10
52.543861
 20
85.114037
  0
VERTEX
  8
0
 10
54.447369
 20
85.657898
  0
VERTEX
  8
0
 10
52.543861
 20
86.201759
  0
SEQEND
  0
LINE
  8
0
 62
     5
 10
54.447369
 20
73.692986
 11
54.447369
 21
86.473686
  0
TEXT
  8
0
 62
     7
 10
50.422192
 20
86.092987
 40
3.154386
 41
1.000000
  1
6
  7
KANJI
 50
0.000000
 51
0.000000
  0
LINE
  8
0
 62
     5
 10
54.447369
 20
85.657898
 11
62.447369
 21
85.657898
  0
POLYLINE
  8
0
 62
     5
 66
     1
 70
     2
  0
VERTEX
  8
0
 10
56.350876
 20
86.201759
  0
VERTEX
  8
0
 10
54.447369
 20
85.657898
  0
VERTEX
  8
0
 10
56.350876
 20
85.114037
  0
SEQEND
  0
POLYLINE
  8
0
 62
     5
 66
     1
 70
     2
  0
VERTEX
  8
0
 10
60.543861
 20
85.114037
  0
VERTEX
  8
0
 10
62.447369
 20
85.657898
  0
VERTEX
  8
0
 10
60.543861
 20
86.201759
  0
SEQEND
  0
TEXT
  8
0
 62
     7
 10
57.422195
 20
86.092987
 40
3.154386
 41
1.000000
  1
8
  7
KANJI
 50
0.000000
 51
0.000000
  0
POLYLINE
  8
DASHDOT
 62
     7
 66
     1
 70
     2
  0
VERTEX
  8
DASHDOT
 10
58.447369
 20
53.324562
  0
VERTEX
  8
DASHDOT
 10
58.447369
 20
45.061405
  0
SEQEND
  0
POLYLINE
  8
0
 62
     4
 66
     1
 70
     2
  0
VERTEX
  8
0
 10
59.947369
 20
51.692986
  0
VERTEX
  8
0
 10
59.947369
 20
46.692986
  0
SEQEND
  0
POLYLINE
  8
0
 62
     4
 66
     1
 70
     2
  0
VERTEX
  8
0
 10
56.947369
 20
51.692986
  0
VERTEX
  8
0
 10
56.947369
 20
46.692986
  0
SEQEND
  0
POLYLINE
  8
0
 62
     4
 66
     1
 70
     2
  0
VERTEX
  8
0
 10
59.677368
 20
51.692986
  0
VERTEX
  8
0
 10
59.677368
 20
46.692986
  0
SEQEND
  0
POLYLINE
  8
0
 62
     4
 66
     1
 70
     2
  0
VERTEX
  8
0
 10
57.217369
 20
51.692986
  0
VERTEX
  8
0
 10
57.217369
 20
46.692986
  0
SEQEND
  0
POLYLINE
  8
0
 62
     5
 66
     1
 70
     2
  0
VERTEX
  8
0
 10
104.078949
 20
51.692986
  0
VERTEX
  8
0
 10
94.289474
 20
64.745621
  0
VERTEX
  8
0
 10
102.773682
 20
64.745621
  0
SEQEND
  0
POLYLINE
  8
0
 62
     5
 66
     1
 70
     2
  0
VERTEX
  8
0
 10
102.501755
 20
52.889477
  0
VERTEX
  8
0
 10
104.078949
 20
51.692986
  0
VERTEX
  8
0
 10
103.371933
 20
53.542107
  0
SEQEND
  0
TEXT
  8
0
 62
     7
 10
94.833328
 20
65.289474
 40
3.154386
 41
1.000000
  1
M3
  7
KANJI
 50
0.000000
 51
0.000000
  0
POLYLINE
  8
0
 62
     4
 66
     1
 70
     2
  0
VERTEX
  8
0
 10
102.578949
 20
46.401085
  0
VERTEX
  8
0
 10
102.578949
 20
51.567104
  0
SEQEND
  0
POLYLINE
  8
0
 62
     4
 66
     1
 70
     2
  0
VERTEX
  8
0
 10
105.578949
 20
46.401085
  0
VERTEX
  8
0
 10
105.578949
 20
51.567104
  0
SEQEND
  0
POLYLINE
  8
0
 62
     4
 66
     1
 70
     2
  0
VERTEX
  8
0
 10
102.848953
 20
46.499176
  0
VERTEX
  8
0
 10
102.848953
 20
51.608540
  0
SEQEND
  0
POLYLINE
  8
0
 62
     4
 66
     1
 70
     2
  0
VERTEX
  8
0
 10
105.308945
 20
46.499176
  0
VERTEX
  8
0
 10
105.308945
 20
51.608540
  0
SEQEND
  0
POLYLINE
  8
DASHDOT
 62
     7
 66
     1
 70
     2
  0
VERTEX
  8
DASHDOT
 10
58.447369
 20
32.061409
  0
VERTEX
  8
DASHDOT
 10
58.447369
 20
40.324566
  0
SEQEND
  0
POLYLINE
  8
0
 62
     4
 66
     1
 70
     2
  0
VERTEX
  8
0
 10
56.947369
 20
33.692986
  0
VERTEX
  8
0
 10
56.947369
 20
38.692986
  0
SEQEND
  0
POLYLINE
  8
0
 62
     4
 66
     1
 70
     2
  0
VERTEX
  8
0
 10
59.947369
 20
33.692986
  0
VERTEX
  8
0
 10
59.947369
 20
38.692986
  0
SEQEND
  0
POLYLINE
  8
0
 62
     4
 66
     1
 70
     2
  0
VERTEX
  8
0
 10
57.217369
 20
33.692986
  0
VERTEX
  8
0
 10
57.217369
 20
38.692986
  0
SEQEND
  0
POLYLINE
  8
0
 62
     4
 66
     1
 70
     2
  0
VERTEX
  8
0
 10
59.677368
 20
33.692986
  0
VERTEX
  8
0
 10
59.677368
 20
38.692986
  0
SEQEND
  0
POLYLINE
  8
0
 62
     5
 66
     1
 70
     2
  0
VERTEX
  8
0
 10
104.078949
 20
33.692986
  0
VERTEX
  8
0
 10
98.640350
 20
24.991232
  0
VERTEX
  8
0
 10
108.212280
 20
24.991232
  0
SEQEND
  0
POLYLINE
  8
0
 62
     5
 66
     1
 70
     2
  0
VERTEX
  8
0
 10
103.531281
 20
31.790569
  0
VERTEX
  8
0
 10
104.078949
 20
33.692986
  0
VERTEX
  8
0
 10
102.608902
 20
32.367058
  0
SEQEND
  0
TEXT
  8
0
 62
     7
 10
100.271927
 20
25.535091
 40
3.154386
 41
1.000000
  1
M3
  7
KANJI
 50
0.000000
 51
0.000000
  0
POLYLINE
  8
0
 62
     4
 66
     1
 70
     2
  0
VERTEX
  8
0
 10
105.578949
 20
38.984886
  0
VERTEX
  8
0
 10
105.578949
 20
33.818867
  0
SEQEND
  0
POLYLINE
  8
0
 62
     4
 66
     1
 70
     2
  0
VERTEX
  8
0
 10
102.578949
 20
38.984886
  0
VERTEX
  8
0
 10
102.578949
 20
33.818867
  0
SEQEND
  0
POLYLINE
  8
0
 62
     4
 66
     1
 70
     2
  0
VERTEX
  8
0
 10
105.308945
 20
38.886795
  0
VERTEX
  8
0
 10
105.308945
 20
33.777431
  0
SEQEND
  0
POLYLINE
  8
0
 62
     4
 66
     1
 70
     2
  0
VERTEX
  8
0
 10
102.848953
 20
38.886795
  0
VERTEX
  8
0
 10
102.848953
 20
33.777431
  0
SEQEND
  0
LINE
  8
DASHDOT
 62
     7
 10
58.447369
 20
33.692986
 11
58.447369
 21
51.692986
  0
LINE
  8
0
 62
     5
 10
67.885963
 20
46.692986
 11
67.885963
 21
38.692986
  0
POLYLINE
  8
0
 62
     5
 66
     1
 70
     2
  0
VERTEX
  8
0
 10
68.429825
 20
44.789478
  0
VERTEX
  8
0
 10
67.885963
 20
46.692986
  0
VERTEX
  8
0
 10
67.342102
 20
44.789478
  0
SEQEND
  0
POLYLINE
  8
0
 62
     5
 66
     1
 70
     2
  0
VERTEX
  8
0
 10
67.342102
 20
40.596493
  0
VERTEX
  8
0
 10
67.885963
 20
38.692986
  0
VERTEX
  8
0
 10
68.429825
 20
40.596493
  0
SEQEND
  0
LINE
  8
0
 62
     5
 10
62.447369
 20
46.692986
 11
68.701752
 21
46.692986
  0
LINE
  8
0
 62
     5
 10
62.447369
 20
38.692986
 11
68.701752
 21
38.692986
  0
TEXT
  8
0
 62
     7
 10
67.342102
 20
40.098774
 40
3.154386
 41
1.000000
  1
%%c8
  7
KANJI
 50
90.000000
 51
0.000000
  0
POLYLINE
  8
0
 62
     4
 66
     1
 70
     2
  0
VERTEX
  8
0
 10
48.447369
 20
38.692986
  0
VERTEX
  8
0
 10
48.447369
 20
11.692986
  0
VERTEX
  8
0
 10
54.447369
 20
11.692986
  0
VERTEX
  8
0
 10
54.447369
 20
33.692986
  0
VERTEX
  8
0
 10
62.447369
 20
33.692986
  0
VERTEX
  8
0
 10
62.447369
 20
33.692986
  0
VERTEX
  8
0
 10
62.447369
 20
51.692986
  0
VERTEX
  8
0
 10
62.447369
 20
51.692986
  0
VERTEX
  8
0
 10
54.447369
 20
51.692986
  0
VERTEX
  8
0
 10
54.447369
 20
73.692986
  0
VERTEX
  8
0
 10
48.447369
 20
73.692986
  0
VERTEX
  8
0
 10
48.447369
 20
38.692986
  0
SEQEND
  0
POLYLINE
  8
0
 62
     4
 66
     1
 70
     2
  0
VERTEX
  8
0
 10
48.447369
 20
38.692986
  0
VERTEX
  8
0
 10
48.447369
 20
11.692986
  0
VERTEX
  8
0
 10
54.447369
 20
11.692986
  0
VERTEX
  8
0
 10
54.447369
 20
33.692986
  0
SEQEND
  0
POLYLINE
  8
0
 62
     4
 66
     1
 70
     2
  0
VERTEX
  8
0
 10
62.447369
 20
33.692986
  0
VERTEX
  8
0
 10
62.447369
 20
51.692986
  0
SEQEND
  0
POLYLINE
  8
0
 62
     4
 66
     1
 70
     2
  0
VERTEX
  8
0
 10
54.447369
 20
51.692986
  0
VERTEX
  8
0
 10
54.447369
 20
73.692986
  0
VERTEX
  8
0
 10
48.447369
 20
73.692986
  0
VERTEX
  8
0
 10
48.447369
 20
38.692986
  0
SEQEND
  0
POLYLINE
  8
0
 62
     4
 66
     1
 70
     2
  0
VERTEX
  8
0
 10
54.447369
 20
16.442986
  0
VERTEX
  8
0
 10
52.947369
 20
16.442986
  0
VERTEX
  8
0
 10
52.947369
 20
33.692986
  0
VERTEX
  8
0
 10
54.447369
 20
33.692986
  0
SEQEND
  0
POLYLINE
  8
0
 62
     4
 66
     1
 70
     2
  0
VERTEX
  8
0
 10
54.447369
 20
51.692986
  0
VERTEX
  8
0
 10
52.947369
 20
51.692986
  0
VERTEX
  8
0
 10
52.947369
 20
68.942986
  0
VERTEX
  8
0
 10
54.447369
 20
68.942986
  0
SEQEND
  0
LINE
  8
0
 62
     5
 10
72.236847
 20
51.692986
 11
72.236847
 21
33.692986
  0
POLYLINE
  8
0
 62
     5
 66
     1
 70
     2
  0
VERTEX
  8
0
 10
72.780701
 20
49.789478
  0
VERTEX
  8
0
 10
72.236847
 20
51.692986
  0
VERTEX
  8
0
 10
71.692986
 20
49.789478
  0
SEQEND
  0
POLYLINE
  8
0
 62
     5
 66
     1
 70
     2
  0
VERTEX
  8
0
 10
71.692986
 20
35.596493
  0
VERTEX
  8
0
 10
72.236847
 20
33.692986
  0
VERTEX
  8
0
 10
72.780701
 20
35.596493
  0
SEQEND
  0
LINE
  8
0
 62
     5
 10
62.447369
 20
51.692986
 11
73.052635
 21
51.692986
  0
LINE
  8
0
 62
     5
 10
62.447369
 20
33.692986
 11
73.052635
 21
33.692986
  0
TEXT
  8
0
 62
     7
 10
71.692986
 20
39.073601
 40
3.154386
 41
1.000000
  1
%%c18
  7
KANJI
 50
90.000000
 51
0.000000
  0
CIRCLE
  8
0
 62
     4
 10
104.078949
 20
42.692986
 40
4.000000
  0
LINE
  8
DASHDOT
 62
     7
 10
104.078949
 20
54.412285
 11
104.078949
 21
32.061405
  0
LINE
  8
DASHDOT
 62
     7
 10
93.447372
 20
42.692986
 11
114.710526
 21
42.692986
  0
CIRCLE
  8
0
 62
     4
 10
104.078949
 20
42.692986
 40
9.000000
  0
LINE
  8
0
 62
     5
 10
58.447369
 20
76.956146
 11
62.447369
 21
76.956146
  0
POLYLINE
  8
0
 62
     5
 66
     1
 70
     2
  0
VERTEX
  8
0
 10
60.350876
 20
77.500000
  0
VERTEX
  8
0
 10
58.447369
 20
76.956146
  0
VERTEX
  8
0
 10
60.350876
 20
76.412277
  0
SEQEND
  0
POLYLINE
  8
0
 62
     5
 66
     1
 70
     2
  0
VERTEX
  8
0
 10
60.543861
 20
76.412277
  0
VERTEX
  8
0
 10
62.447369
 20
76.956146
  0
VERTEX
  8
0
 10
60.543861
 20
77.500000
  0
SEQEND
  0
LINE
  8
0
 62
     5
 10
58.447369
 20
73.692986
 11
58.447369
 21
77.771927
  0
TEXT
  8
0
 62
     7
 10
59.422195
 20
77.391235
 40
3.154386
 41
1.000000
  1
4
  7
KANJI
 50
0.000000
 51
0.000000
  0
LINE
  8
0
 62
     5
 10
58.447369
 20
51.692986
 11
58.447369
 21
73.692986
  0
ENDSEC
  0
EOF
